<?xml version="1.0" encoding="UTF-8"?>
<svg id="Camada_2" data-name="Camada 2" xmlns="http://www.w3.org/2000/svg" viewBox="0 0 186 186">
  <defs>
    <style>
      .cls-1 {
        fill: #ff859b;
      }

      .cls-2 {
        fill: #121115;
      }
    </style>
  </defs>
  <g id="Camada_1-2" data-name="Camada 1">
    <path class="cls-2" d="M93,0h0c51.36,0,93,41.64,93,93h0c0,51.36-41.64,93-93,93h0C41.64,186,0,144.36,0,93H0C0,41.64,41.64,0,93,0Z"/>
    <path class="cls-1" d="M79.88,98.62c4.75-1.12,9.12-1.69,13.12-1.69s8.38,.56,13.12,1.69,9.06,3,12.94,5.62c4,2.62,6,5.56,6,8.81v12H60.94v-12c0-3.25,1.94-6.19,5.81-8.81,4-2.62,8.38-4.5,13.12-5.62Zm1.88-32.81c3.12-3.25,6.88-4.88,11.25-4.88s8.12,1.62,11.25,4.88c3.12,3.12,4.69,6.88,4.69,11.25s-1.56,8.12-4.69,11.25-6.88,4.69-11.25,4.69-8.12-1.56-11.25-4.69-4.69-6.88-4.69-11.25,1.56-8.12,4.69-11.25Zm27.56,42c-5.37-2.12-10.81-3.19-16.31-3.19s-10.94,1.06-16.31,3.19c-5.38,2-8.06,3.75-8.06,5.25v4.31h48.75v-4.31c0-1.5-2.69-3.25-8.06-5.25Zm-10.31-36.75c-1.62-1.62-3.62-2.44-6-2.44s-4.38,.81-6,2.44-2.44,3.62-2.44,6,.81,4.38,2.44,6c1.62,1.5,3.62,2.25,6,2.25s4.38-.75,6-2.25c1.62-1.62,2.44-3.62,2.44-6s-.81-4.38-2.44-6Z"/>
  </g>
</svg>